<svg version="1.2" xmlns="http://www.w3.org/2000/svg" viewBox="0 0 609 952" width="609" height="952">
	<title>&lt;Group&gt;</title>
	<style>
		.s0 { fill: #181b26 } 
		.s1 { fill: #cca937 } 
		.s2 { fill: #dbc43e } 
		.s3 { fill: #f4d645 } 
		.s4 { fill: #af8d2f } 
	</style>
	<g id="&lt;Group&gt;">
		<g id="&lt;Group&gt;">
			<path id="&lt;Path&gt;" class="s0" d="m60.7 926h-16.6c-13.9 0-25.1-11.3-25.1-25.2v-127.1c0-13.9 11.2-25.2 25.1-25.2h16.6c13.9 0 25.1 11.3 25.1 25.2v127.1c0 13.9-11.2 25.2-25.1 25.2z"/>
			<path id="&lt;Path&gt;" class="s0" d="m548.7 926h16.5c13.9 0 25.2-11.3 25.2-25.2v-127.1c0-13.9-11.3-25.2-25.2-25.2h-16.5c-13.9 0-25.2 11.3-25.2 25.2v127.1c0 13.9 11.3 25.2 25.2 25.2z"/>
			<path id="&lt;Path&gt;" class="s1" d="m11 133.4l57.3 76.4v-86.8z"/>
			<path id="&lt;Path&gt;" class="s1" d="m598.3 133.4l-57.3 76.4v-86.8z"/>
			<path id="&lt;Path&gt;" class="s1" d="m443.2 41.8l-27.1-32.7c-4.5-5.5-11.3-8.6-18.4-8.6h-186c-7.1 0-13.9 3.1-18.4 8.6l-27.1 32.7z"/>
			<path id="&lt;Path&gt;" class="s2" d="m553 129.4l-24.9 801.8c-0.3 11.3-9.6 20.3-20.8 20.3h-202.6-202.6c-11.3 0-20.5-9-20.9-20.3l-24.8-801.8z"/>
			<path id="&lt;Path&gt;" class="s1" d="m148.2 132.6l8.6 62.5c0.3 1.7 2.6 1.7 2.9 0l8.6-62.5z"/>
			<path id="&lt;Path&gt;" class="s1" d="m294.3 132.6l8.7 62.5c0.2 1.7 2.6 1.7 2.8 0l8.6-62.5z"/>
			<path id="&lt;Path&gt;" class="s1" d="m440.5 132.6l8.6 62.5c0.2 1.7 2.6 1.7 2.8 0l8.7-62.5z"/>
			<path id="&lt;Path&gt;" class="s2" d="m600.7 98.3c0 0-8.6-42.4-47.1-60.3-3.6-1.7-7.6-2.5-11.6-2.5h-474.6c-4 0-8 0.8-11.6 2.5-38.5 17.9-47.2 60.3-47.2 60.3z"/>
			<path id="&lt;Path&gt;" class="s3" d="m603.9 134.9h-598.4c-2.7 0-4.8-2.1-4.8-4.7v-34.2c0-2.7 2.1-4.8 4.8-4.8h598.4c2.6 0 4.8 2.1 4.8 4.8v34.2c0 2.6-2.2 4.7-4.8 4.7z"/>
		</g>
		<path id="&lt;Path&gt;" class="s4" d="m227.7 682c0 0 3 28 77 28 66 0 77-28 77-28z"/>
		<path id="&lt;Path&gt;" class="s1" d="m401.7 409v265c0 0-18 22-97 22-79 0-97-22-97-22v-265c0 0 22-18 22-44h150c0 26 22 44 22 44z"/>
		<path id="&lt;Path&gt;" class="s4" d="m379.7 365c0 6.6-33.6 12-75 12-41.4 0-75-5.4-75-12v-9h150z"/>
		<path id="&lt;Path&gt;" class="s1" d="m379.7 356c0 6.6-33.6 12-75 12-41.4 0-75-5.4-75-12 0-6.7 33.6-12 75-12 41.4 0 75 5.3 75 12z"/>
	</g>
</svg>