<svg version="1.2" xmlns="http://www.w3.org/2000/svg" viewBox="0 0 609 952" width="609" height="952">
	<title>&lt;Path&gt;</title>
	<style>
		.s0 { fill: #181b26 } 
		.s1 { fill: #27a063 } 
		.s2 { fill: #30b374 } 
		.s3 { fill: #42cc86 } 
		.s4 { fill: #258952 } 
	</style>
	<path id="&lt;Path&gt;" class="s0" d="m60.3 926.1h-16.5c-13.9 0-25.2-11.3-25.2-25.2v-127.1c0-13.9 11.3-25.2 25.2-25.2h16.5c13.9 0 25.2 11.3 25.2 25.2v127.1c0 13.9-11.3 25.2-25.2 25.2z"/>
	<path id="&lt;Path&gt;" class="s0" d="m548.3 926.1h16.6c13.9 0 25.1-11.3 25.1-25.2v-127.1c0-13.9-11.2-25.2-25.1-25.2h-16.6c-13.9 0-25.1 11.3-25.1 25.2v127.1c0 13.9 11.2 25.2 25.1 25.2z"/>
	<path id="&lt;Path&gt;" class="s1" d="m10.7 133.4l57.3 76.4v-86.7z"/>
	<path id="&lt;Path&gt;" class="s1" d="m598 133.4l-57.3 76.4v-86.7z"/>
	<path id="&lt;Path&gt;" class="s1" d="m442.8 41.9l-27.1-32.7c-4.5-5.5-11.3-8.7-18.4-8.7h-186c-7.1 0-13.9 3.2-18.4 8.7l-27.1 32.7z"/>
	<path id="&lt;Path&gt;" class="s2" d="m552.6 129.5l-24.8 801.8c-0.4 11.3-9.6 20.2-20.9 20.2h-202.6-202.6c-11.2 0-20.5-8.9-20.8-20.2l-24.9-801.8z"/>
	<path id="&lt;Path&gt;" class="s1" d="m147.8 132.6l8.7 62.6c0.2 1.7 2.6 1.7 2.8 0l8.6-62.6z"/>
	<path id="&lt;Path&gt;" class="s1" d="m294 132.6l8.6 62.6c0.2 1.7 2.6 1.7 2.8 0l8.7-62.6z"/>
	<path id="&lt;Path&gt;" class="s1" d="m440.1 132.6l8.6 62.6c0.3 1.7 2.7 1.7 2.9 0l8.6-62.6z"/>
	<path id="&lt;Path&gt;" class="s2" d="m600.4 98.4c0 0-8.7-42.4-47.2-60.3-3.6-1.7-7.6-2.5-11.6-2.5h-474.6c-4 0-8 0.8-11.6 2.5-38.5 17.9-47.1 60.3-47.1 60.3z"/>
	<path id="&lt;Path&gt;" class="s3" d="m603.5 135h-598.4c-2.6 0-4.8-2.1-4.8-4.7v-34.3c0-2.6 2.2-4.7 4.8-4.7h598.4c2.7 0 4.8 2.1 4.8 4.7v34.3c0 2.6-2.1 4.7-4.8 4.7z"/>
	<path id="&lt;Path&gt;" class="s4" d="m482.3 483.9l-38 57.7c-2.3 3.5-7.3 3.7-9.9 0.5l-43.9-53.3c-3.2-3.9-0.6-9.8 4.4-10.1l25.5-1.3c-1.5-7.4-3.8-14.6-6.8-21.7-6-14.1-14.6-26.9-25.5-37.8-10.9-10.9-23.7-19.5-37.8-25.5-14.7-6.2-30.3-9.4-46.4-9.4-16 0-31.6 3.2-46.3 9.4-14.1 6-26.9 14.6-37.8 25.5-10.9 10.9-19.5 23.7-25.5 37.8-6.2 14.7-9.4 30.3-9.4 46.3 0 16.1 3.2 31.7 9.4 46.4 6 14.1 14.6 26.9 25.5 37.8 10.9 10.9 23.7 19.5 37.8 25.5 14.7 6.2 30.3 9.3 46.3 9.3 16.1 0 31.7-3.1 46.4-9.3 14.1-6 26.9-14.6 37.8-25.5l20.1 20.1c-26.7 26.6-63.5 43.1-104.3 43.1-81.4 0-147.3-66-147.3-147.4 0-81.4 65.9-147.3 147.3-147.3 72.5 0 132.8 52.3 145.1 121.2l27.8-1.5c5.1-0.2 8.3 5.3 5.5 9.5z"/>
</svg>