<svg version="1.2" xmlns="http://www.w3.org/2000/svg" viewBox="0 0 609 952" width="609" height="952">
	<title>&lt;Group&gt;</title>
	<style>
		.s0 { fill: #181b26 } 
		.s1 { fill: #304196 } 
		.s2 { fill: #3a4ab6 } 
		.s3 { fill: #465dd1 } 
		.s4 { fill: #293b7f } 
		.s5 { fill: #1d2d63 } 
	</style>
	<g id="&lt;Group&gt;">
		<g id="&lt;Group&gt;">
			<path id="&lt;Path&gt;" class="s0" d="m60.3 926h-16.5c-13.9 0-25.2-11.3-25.2-25.2v-127.1c0-13.9 11.3-25.2 25.2-25.2h16.5c13.9 0 25.2 11.3 25.2 25.2v127.1c0 13.9-11.3 25.2-25.2 25.2z"/>
			<path id="&lt;Path&gt;" class="s0" d="m548.3 926h16.6c13.9 0 25.1-11.3 25.1-25.2v-127.1c0-13.9-11.2-25.2-25.1-25.2h-16.6c-13.9 0-25.1 11.3-25.1 25.2v127.1c0 13.9 11.2 25.2 25.1 25.2z"/>
			<path id="&lt;Path&gt;" class="s1" d="m10.7 133.4l57.3 76.4v-86.8z"/>
			<path id="&lt;Path&gt;" class="s1" d="m598 133.4l-57.3 76.4v-86.8z"/>
			<path id="&lt;Path&gt;" class="s1" d="m442.8 41.8l-27.1-32.7c-4.5-5.5-11.3-8.6-18.4-8.6h-186c-7.1 0-13.9 3.1-18.4 8.6l-27.1 32.7z"/>
			<path id="&lt;Path&gt;" class="s2" d="m552.6 129.4l-24.8 801.8c-0.4 11.3-9.6 20.3-20.9 20.3h-202.6-202.6c-11.2 0-20.5-9-20.8-20.3l-24.9-801.8z"/>
			<path id="&lt;Path&gt;" class="s1" d="m147.8 132.6l8.7 62.5c0.2 1.7 2.6 1.7 2.8 0l8.6-62.5z"/>
			<path id="&lt;Path&gt;" class="s1" d="m294 132.6l8.6 62.5c0.2 1.7 2.6 1.7 2.8 0l8.7-62.5z"/>
			<path id="&lt;Path&gt;" class="s1" d="m440.1 132.6l8.6 62.5c0.3 1.7 2.7 1.7 2.9 0l8.6-62.5z"/>
			<path id="&lt;Path&gt;" class="s2" d="m600.4 98.3c0 0-8.7-42.4-47.2-60.3-3.6-1.7-7.6-2.5-11.6-2.5h-474.6c-4 0-8 0.8-11.6 2.5-38.5 17.9-47.1 60.3-47.1 60.3z"/>
			<path id="&lt;Path&gt;" class="s3" d="m603.5 134.9h-598.4c-2.6 0-4.8-2.1-4.8-4.7v-34.2c0-2.7 2.2-4.8 4.8-4.8h598.4c2.7 0 4.8 2.1 4.8 4.8v34.2c0 2.6-2.1 4.7-4.8 4.7z"/>
		</g>
		<g id="&lt;Group&gt;">
			<path id="&lt;Path&gt;" class="s4" d="m421.3 463v198.3c0 15.3-12.3 27.7-27.6 27.7h-178.8c-15.2 0-27.6-12.4-27.6-27.7v-274.7c0-15.3 12.4-27.6 27.6-27.6h102.4z"/>
			<path id="&lt;Path&gt;" class="s5" d="m421.3 463h-78.8c-13.9 0-25.2-11.3-25.2-25.2v-78.8z"/>
			<g id="&lt;Group&gt;">
				<path id="&lt;Path&gt;" class="s5" d="m377.8 532h-144c-4.1 0-7.5-3.4-7.5-7.5 0-4.2 3.4-7.5 7.5-7.5h144c4.2 0 7.5 3.3 7.5 7.5 0 4.1-3.3 7.5-7.5 7.5z"/>
				<path id="&lt;Path&gt;" class="s5" d="m377.8 581h-144c-4.1 0-7.5-3.4-7.5-7.5 0-4.2 3.4-7.5 7.5-7.5h144c4.2 0 7.5 3.3 7.5 7.5 0 4.1-3.3 7.5-7.5 7.5z"/>
				<path id="&lt;Path&gt;" class="s5" d="m345.6 630h-112.6c-3.7 0-6.7-3-6.7-6.7v-1.7c0-3.7 3-6.6 6.7-6.6h112.6c3.7 0 6.7 2.9 6.7 6.6v1.7c0 3.7-3 6.7-6.7 6.7z"/>
			</g>
		</g>
	</g>
</svg>