<svg version="1.2" xmlns="http://www.w3.org/2000/svg" viewBox="0 0 609 952" width="609" height="952">
	<title>&lt;Path&gt;</title>
	<style>
		.s0 { fill: #181b26 } 
		.s1 { fill: #b72749 } 
		.s2 { fill: #d12f4e } 
		.s3 { fill: #ef3c52 } 
		.s4 { fill: #892043 } 
		.s5 { fill: #a52348 } 
	</style>
	<path id="&lt;Path&gt;" class="s0" d="m60.7 926.1h-16.6c-13.9 0-25.1-11.3-25.1-25.2v-127.1c0-13.9 11.2-25.2 25.1-25.2h16.6c13.9 0 25.1 11.3 25.1 25.2v127.1c0 13.9-11.2 25.2-25.1 25.2z"/>
	<path id="&lt;Path&gt;" class="s0" d="m548.7 926.1h16.5c13.9 0 25.2-11.3 25.2-25.2v-127.1c0-13.9-11.3-25.2-25.2-25.2h-16.5c-13.9 0-25.2 11.3-25.2 25.2v127.1c0 13.9 11.3 25.2 25.2 25.2z"/>
	<path id="&lt;Path&gt;" class="s1" d="m11 133.4l57.3 76.4v-86.7z"/>
	<path id="&lt;Path&gt;" class="s1" d="m598.3 133.4l-57.3 76.4v-86.7z"/>
	<path id="&lt;Path&gt;" class="s1" d="m443.2 41.9l-27.1-32.7c-4.5-5.5-11.3-8.7-18.4-8.7h-186c-7.1 0-13.9 3.2-18.4 8.7l-27.1 32.7z"/>
	<path id="&lt;Path&gt;" class="s2" d="m553 129.5l-24.9 801.8c-0.3 11.3-9.6 20.2-20.8 20.2h-202.6-202.6c-11.3 0-20.5-8.9-20.9-20.2l-24.8-801.8z"/>
	<path id="&lt;Path&gt;" class="s1" d="m148.2 132.6l8.6 62.6c0.3 1.7 2.6 1.7 2.9 0l8.6-62.6z"/>
	<path id="&lt;Path&gt;" class="s1" d="m294.3 132.6l8.7 62.6c0.2 1.7 2.6 1.7 2.8 0l8.6-62.6z"/>
	<path id="&lt;Path&gt;" class="s1" d="m440.5 132.6l8.6 62.6c0.2 1.7 2.6 1.7 2.8 0l8.7-62.6z"/>
	<path id="&lt;Path&gt;" class="s2" d="m600.7 98.4c0 0-8.6-42.4-47.1-60.3-3.6-1.7-7.6-2.5-11.6-2.5h-474.6c-4 0-8 0.8-11.6 2.5-38.5 17.9-47.2 60.3-47.2 60.3z"/>
	<path id="&lt;Path&gt;" class="s3" d="m603.9 135h-598.4c-2.7 0-4.8-2.1-4.8-4.7v-34.3c0-2.6 2.1-4.7 4.8-4.7h598.4c2.6 0 4.8 2.1 4.8 4.7v34.3c0 2.6-2.2 4.7-4.8 4.7z"/>
	<path id="&lt;Path&gt;" class="s4" d="m381.7 581h-154v-79h154z"/>
	<path id="&lt;Path&gt;" class="s5" d="m386.2 465.5v36.9c0 2.6-2.1 4.6-4.7 4.6h-153.7c-2.5 0-4.6-2-4.6-4.6v-36.9c0-32.1 22.9-59.7 54.5-65.5v-39h54v39c31.6 5.8 54.5 33.4 54.5 65.5z"/>
	<path id="&lt;Path&gt;" class="s5" d="m386.2 693v-117.3c0-2.6-2.1-4.7-4.7-4.7h-153.7c-2.5 0-4.6 2.1-4.6 4.7v117.3c0 16.6 13.4 30 30 30h103c16.6 0 30-13.4 30-30z"/>
	<path id="&lt;Path&gt;" class="s4" d="m324.7 330h-40c-11.3 0-20.5 9.2-20.5 20.6v4.9c0 5.8 4.7 10.5 10.6 10.5h59.8c5.8 0 10.6-4.7 10.6-10.5v-4.9c0-11.4-9.2-20.6-20.5-20.6z"/>
</svg>